<svg xmlns="http://www.w3.org/2000/svg" viewBox="0 0 512 512" role="img" aria-label="Forge Fitness icon">
  <defs>
    <radialGradient id="glow" cx="50%" cy="35%" r="70%">
      <stop offset="0%" stop-color="#ff7a18" stop-opacity="0.55" />
      <stop offset="45%" stop-color="#ef4444" stop-opacity="0.35" />
      <stop offset="100%" stop-color="#0b0b10" stop-opacity="0" />
    </radialGradient>
    <linearGradient id="ember" x1="0%" y1="0%" x2="100%" y2="100%">
      <stop offset="0%" stop-color="#f97316" />
      <stop offset="55%" stop-color="#ef4444" />
      <stop offset="100%" stop-color="#b91c1c" />
    </linearGradient>
    <linearGradient id="steel" x1="0%" y1="0%" x2="100%" y2="0%">
      <stop offset="0%" stop-color="#e5e7eb" stop-opacity="0.65" />
      <stop offset="50%" stop-color="#9ca3af" stop-opacity="0.95" />
      <stop offset="100%" stop-color="#e5e7eb" stop-opacity="0.65" />
    </linearGradient>
    <linearGradient id="core" x1="0%" y1="0%" x2="0%" y2="100%">
      <stop offset="0%" stop-color="#1f1f2a" />
      <stop offset="100%" stop-color="#0f1016" />
    </linearGradient>
  </defs>
  <rect width="512" height="512" rx="120" fill="#0b0b0f" />
  <circle cx="256" cy="240" r="200" fill="url(#glow)" />
  <circle cx="256" cy="256" r="200" fill="none" stroke="rgba(255,255,255,0.06)" stroke-width="2" />
  <circle cx="256" cy="256" r="190" fill="none" stroke="url(#ember)" stroke-width="8" />

  <polygon
    points="256 104 392 182 392 330 256 408 120 330 120 182"
    fill="url(#core)"
    stroke="rgba(255,255,255,0.08)"
    stroke-width="2"
  />
  <polygon
    points="256 128 370 194 370 318 256 384 142 318 142 194"
    fill="#11131a"
    stroke="url(#ember)"
    stroke-width="6"
  />

  <g>
    <rect x="138" y="244" width="236" height="24" rx="12" fill="url(#steel)" />
    <rect x="104" y="220" width="30" height="72" rx="9" fill="#101117" stroke="url(#ember)" stroke-width="5" />
    <rect x="378" y="220" width="30" height="72" rx="9" fill="#101117" stroke="url(#ember)" stroke-width="5" />
  </g>

  <polygon
    points="254 160 316 160 274 252 326 252 216 376 250 278 206 278"
    fill="url(#ember)"
  />
</svg>
